<svg xmlns="http://www.w3.org/2000/svg" viewBox="0 0 316.07 168.91"><title>movement-logo_1</title><g id="d4fa26e7-9992-4714-bf29-14ea74c6c5e1" data-name="Layer 2"><g id="316088ad-e000-4218-964e-721411f679f1" data-name="Layer 1"><polygon points="56.3 0 76.12 58.27 76.36 58.27 95.11 0 121.33 0 121.33 84.73 103.89 84.73 103.89 24.68 103.65 24.68 82.89 84.73 68.53 84.73 47.76 25.29 47.53 25.29 47.53 84.73 30.08 84.73 30.08 0 56.3 0"/><polygon points="216.15 84.73 188.74 0 207.84 0 226.71 59.58 226.94 59.58 246.05 0 265.27 0 237.15 84.73 216.15 84.73"/><path d="M161.75,84.65a42.14,42.14,0,1,1,42.14-42.14,42.19,42.19,0,0,1-42.14,42.14m0-65.65a23.51,23.51,0,1,0,23.51,23.51A23.53,23.53,0,0,0,161.75,19"/><path d="M161.75,54.42a11.92,11.92,0,1,1,11.92-11.91,11.93,11.93,0,0,1-11.92,11.91"/><polygon points="30.59 0.01 30.76 15.68 3.32 15.68 0 0.01 30.59 0.01"/><polygon points="294.32 0 297.88 15.67 278.75 15.67 278.75 33.82 301.69 33.82 305.13 48.3 278.75 48.3 278.75 69.07 309.31 69.07 312.75 84.73 260.12 84.73 260.12 0 294.32 0"/><polygon points="73.25 84.17 93.06 142.44 93.3 142.44 112.05 84.17 138.28 84.17 138.28 168.9 120.83 168.9 120.83 108.86 120.59 108.86 99.83 168.9 85.47 168.9 64.7 109.45 64.47 109.45 64.47 168.9 47.02 168.9 47.02 84.17 73.25 84.17"/><polygon points="204.37 84.17 204.37 99.83 159.63 99.83 159.63 117.99 200.69 117.99 200.69 132.47 159.63 132.47 159.63 153.24 205.32 153.24 205.32 168.9 141 168.9 141 84.17 204.37 84.17"/><polygon points="225.14 84.17 260.5 141.01 260.74 141.01 260.74 84.17 278.18 84.17 278.18 168.9 259.55 168.9 224.31 112.18 224.07 112.18 224.07 168.9 206.62 168.9 206.62 84.17 225.14 84.17"/><polyline points="316.07 99.83 312.95 99.83 312.95 168.9 294.32 168.9 294.32 99.83 268.93 99.83 268.93 84.17 312.62 84.17"/><polygon points="22.09 99.86 47.62 99.86 47.62 84.2 18.6 84.2 22.09 99.86"/><polygon points="29.16 132.5 47.59 132.5 47.51 118.03 25.99 118.03 29.16 132.5"/><polygon points="37.09 168.91 47.67 168.91 47.68 153.16 33.64 153.16 37.09 168.91"/><rect x="260.14" y="83.47" width="2.21" height="58.28"/></g></g></svg>